<svg xmlns="http://www.w3.org/2000/svg" viewBox="0 0 112.06 178.95"><defs><style>.cls-1{fill:#415678}</style></defs><g id="Слой_2" data-name="Слой 2"><g id="Режим_изоляции" data-name="Режим изоляции"><path class="cls-1" d="M102.31 4.84A4.88 4.88 0 10107.18 0a4.85 4.85 0 00-4.87 4.84zm-34.1 0A4.87 4.87 0 1073.08 0a4.85 4.85 0 00-4.87 4.84zm-34.11 0A4.88 4.88 0 1039 0a4.85 4.85 0 00-4.9 4.84zM0 4.84A4.87 4.87 0 104.87 0 4.85 4.85 0 000 4.84zm102.31 33.85a4.88 4.88 0 104.87-4.83 4.86 4.86 0 00-4.87 4.83zm-34.1 0a4.87 4.87 0 104.87-4.83 4.86 4.86 0 00-4.87 4.83zm-34.11 0a4.88 4.88 0 104.9-4.83 4.86 4.86 0 00-4.9 4.83zm-34.1 0a4.87 4.87 0 104.87-4.83A4.86 4.86 0 000 38.69zm102.31 33.86a4.88 4.88 0 104.87-4.84 4.85 4.85 0 00-4.87 4.84z"/><ellipse class="cls-1" cx="73.08" cy="72.55" rx="4.87" ry="4.84"/><path class="cls-1" d="M34.1 72.55a4.88 4.88 0 104.9-4.84 4.85 4.85 0 00-4.9 4.84zm-34.1 0a4.87 4.87 0 104.87-4.84A4.85 4.85 0 000 72.55zm102.31 33.85a4.88 4.88 0 104.87-4.83 4.86 4.86 0 00-4.87 4.83z"/><ellipse class="cls-1" cx="73.08" cy="106.4" rx="4.87" ry="4.84"/><path class="cls-1" d="M34.1 106.4a4.88 4.88 0 104.9-4.83 4.86 4.86 0 00-4.9 4.83zm-34.1 0a4.87 4.87 0 104.87-4.83A4.86 4.86 0 000 106.4zm102.31 33.86a4.88 4.88 0 104.87-4.84 4.85 4.85 0 00-4.87 4.84zm-34.1 0a4.87 4.87 0 104.87-4.84 4.85 4.85 0 00-4.87 4.84zm-34.11 0a4.88 4.88 0 104.9-4.84 4.85 4.85 0 00-4.9 4.84zm-34.1 0a4.87 4.87 0 104.87-4.84A4.85 4.85 0 000 140.26zm102.31 33.85a4.88 4.88 0 104.87-4.83 4.86 4.86 0 00-4.87 4.83zm-34.1 0a4.87 4.87 0 104.87-4.83 4.86 4.86 0 00-4.87 4.83zm-34.11 0a4.88 4.88 0 104.9-4.83 4.86 4.86 0 00-4.9 4.83zm-34.1 0a4.87 4.87 0 104.87-4.83A4.86 4.86 0 000 174.11z"/></g></g></svg>