<svg data-name="Capa 1" xmlns="http://www.w3.org/2000/svg" viewBox="0 0 24 24"><path d="M12 0a12 12 0 1012 12A12 12 0 0012 0zm5.48 9.36v.35a7.79 7.79 0 01-7.84 7.84 7.79 7.79 0 01-4.22-1.24 4.68 4.68 0 00.66 0 5.53 5.53 0 003.42-1.18 2.76 2.76 0 01-2.58-1.91 3 3 0 00.52.05 2.92 2.92 0 00.73-.1A2.76 2.76 0 016 10.51a2.74 2.74 0 001.25.34A2.75 2.75 0 016 8.53a2.83 2.83 0 01.37-1.39A7.8 7.8 0 0012 10a2.59 2.59 0 010-.61 2.75 2.75 0 012.75-2.75 2.72 2.72 0 012 .87 5.3 5.3 0 001.75-.67 2.73 2.73 0 01-1.21 1.52 5.2 5.2 0 001.58-.43 5.64 5.64 0 01-1.39 1.43z"/></svg>