<svg data-name="Capa 1" xmlns="http://www.w3.org/2000/svg" viewBox="0 0 24 24"><path d="M12 0a12 12 0 1012 12A12 12 0 0012 0zm6.09 13.3a21.54 21.54 0 011.65 1.7 5 5 0 01.59.85c.23.45 0 .93-.37 1H17.5a1.93 1.93 0 01-1.57-.64c-.34-.35-.65-.72-1-1.07a2.1 2.1 0 00-.44-.4.51.51 0 00-.82.2 2.55 2.55 0 00-.24 1.06c0 .58-.2.73-.78.76A6.34 6.34 0 019.13 16a7.62 7.62 0 01-2.37-2.22 29.64 29.64 0 01-3.11-5.54c-.2-.44-.06-.67.43-.68h2.4a.69.69 0 01.67.5 15.18 15.18 0 001.63 3 2.68 2.68 0 00.62.68.38.38 0 00.64-.19 2.3 2.3 0 00.14-.63 9.78 9.78 0 000-2.23.92.92 0 00-.79-.84c-.24 0-.2-.14-.09-.27a.9.9 0 01.7-.35h2.77c.44.09.54.29.6.73V11c0 .18.09.68.39.79s.41-.11.56-.27a9.7 9.7 0 001.56-2.4c.19-.38.35-.78.51-1.17a.6.6 0 01.61-.4h3c.45.08.57.28.44.71a6.57 6.57 0 01-1.07 1.85c-.44.62-.92 1.21-1.36 1.83s-.43.87.08 1.36z"/></svg>